<?xml version="1.0" encoding="UTF-8" standalone="no"?>
<!-- Created with Inkscape (http://www.inkscape.org/) -->

<svg
   width="158.74998mm"
   height="151.07709mm"
   viewBox="0 0 158.74998 151.07709"
   version="1.1"
   id="svg5"
   xml:space="preserve"
   inkscape:version="1.2.2 (b0a84865, 2022-12-01)"
   sodipodi:docname="photo.svg"
   xmlns:inkscape="http://www.inkscape.org/namespaces/inkscape"
   xmlns:sodipodi="http://sodipodi.sourceforge.net/DTD/sodipodi-0.dtd"
   xmlns="http://www.w3.org/2000/svg"
   xmlns:svg="http://www.w3.org/2000/svg"><sodipodi:namedview
     id="namedview7"
     pagecolor="#ffffff"
     bordercolor="#000000"
     borderopacity="0.25"
     inkscape:showpageshadow="2"
     inkscape:pageopacity="0.0"
     inkscape:pagecheckerboard="0"
     inkscape:deskcolor="#d1d1d1"
     inkscape:document-units="mm"
     showgrid="false"
     inkscape:zoom="1"
     inkscape:cx="268.5"
     inkscape:cy="551.5"
     inkscape:window-width="1910"
     inkscape:window-height="1085"
     inkscape:window-x="0"
     inkscape:window-y="25"
     inkscape:window-maximized="0"
     inkscape:current-layer="layer1" /><defs
     id="defs2" /><g
     inkscape:label="Layer 1"
     inkscape:groupmode="layer"
     id="layer1"
     transform="translate(-22.754168,-69.849997)"><path
       style="opacity:0.25;fill:#191919;fill-opacity:1;stroke:#ffffff;stroke-width:0.529167;stroke-linecap:round;stroke-linejoin:round"
       d="m 23.01875,219.86875 158.22083,0.79375 -3.175,-29.36875 -3.96875,-6.35 -1.05833,-8.99584 -10.58334,-6.61458 -17.72708,-6.08542 -10.31875,-5.29166 -5.02708,-6.61459 -3.175,-2.11666 -1.5875,-8.99584 4.23333,-12.43541 6.08542,-8.46667 1.32291,-12.43541 -2.38125,-2.38125 -0.26458,-23.547921 -13.49375,-6.614583 -4.49791,0.264583 -7.14375,-4.497917 -17.462504,1.058334 -15.08125,16.933333 -3.704167,18.256251 2.645833,19.31458 7.9375,8.46667 2.910417,17.19791 -15.345833,3.175 -36.777083,15.61042 -9.260417,38.1 z"
       id="path474" /></g></svg>
